<?xml version="1.0" encoding="UTF-8" standalone="no"?>
<!-- Created with Inkscape (http://www.inkscape.org/) -->

<svg
   version="1.1"
   id="svg2"
   xml:space="preserve"
   width="284.04266"
   height="203.25467"
   viewBox="0 0 284.04267 203.25467"
   sodipodi:docname="d101e28b06d1f538368002203546350a.ai"
   xmlns:inkscape="http://www.inkscape.org/namespaces/inkscape"
   xmlns:sodipodi="http://sodipodi.sourceforge.net/DTD/sodipodi-0.dtd"
   xmlns="http://www.w3.org/2000/svg"
   xmlns:svg="http://www.w3.org/2000/svg"><defs
     id="defs6"><clipPath
       clipPathUnits="userSpaceOnUse"
       id="clipPath16"><path
         d="M 0,250 H 350 V 0 H 0 Z"
         id="path14" /></clipPath></defs><sodipodi:namedview
     id="namedview4"
     pagecolor="#ffffff"
     bordercolor="#666666"
     borderopacity="1.0"
     inkscape:pageshadow="2"
     inkscape:pageopacity="0.0"
     inkscape:pagecheckerboard="0" /><g
     id="g8"
     inkscape:groupmode="layer"
     inkscape:label="d101e28b06d1f538368002203546350a"
     transform="matrix(1.3333333,0,0,-1.3333333,-91.312264,268.29386)"><g
       id="g10"><g
         id="g12"
         clip-path="url(#clipPath16)"><g
           id="g18"
           transform="translate(147.4872,138.9484)"><path
             d="m 0,0 c 0,12.007 2.965,23.335 8.2,33.29 0.702,1.337 0.434,2.974 -0.657,4.018 -7.564,7.246 -15.248,14.787 -21.994,23.533 -0.672,0.861 -1.33,1.431 -2.287,1.431 -0.956,0 -1.614,-0.57 -2.286,-1.431 -24.037,-31.16 -59.979,-47.028 -59.979,-88.738 0,-34.389 27.876,-62.272 62.265,-62.272 19.455,0 36.823,8.926 48.24,22.903 1.097,1.342 0.97,3.308 -0.263,4.525 C 14.849,-46.578 0,-28.604 0,0 m 9.498,0 c 0,34.389 27.876,62.272 62.265,62.272 34.389,0 62.266,-27.883 62.266,-62.272 0,-41.709 -35.943,-57.578 -59.979,-88.737 -0.672,-0.862 -1.33,-1.432 -2.287,-1.432 -0.956,0 -1.614,0.57 -2.286,1.432 C 45.441,-57.578 9.498,-41.709 9.498,0"
             style="fill:#ff2a23;fill-opacity:1;fill-rule:nonzero;stroke:none"
             id="path20" /></g></g></g></g></svg>
